P1
84 48
110110011110100100010011101101110111011010100011011010110000101100000011011011001010
011110000001001110011111001110110010011000111001011101010110000001101010010111011111
000100010101001101111001001011000001111100110011011100101101110000001000100100101111
101010000100011111111000100100100001001001111110001001011011011000100100010100011110
011010010101100101011100101011001011011000101100010100101101010100100001001111001100
101011010011001001011101111101011001111110001000110111000000100100101000001101100001
101011000011001110111100101111100101101001000000111000110011000011010011001010100100
000000010110010111001101110100110111001101001010001001000101111101100000111000011010
011101111001010110100100100110011011110000100010000000010000110111100101111111001100
100010001101000011001110001001001011010001000101010001010101000100100100001000110000
110111110100011011111101100111010010101101010010101011110101111100111010100100110000
100101100011010011100001101111110110001110001111111000110010111101001101011110000101
100001010100010000101000000111110100110111100101001110110100101000001001111001011001
110000000101001000010010000101001011100100100000001010011000100000010000001000111111
100110011111101110110001101110000011111001101000111111001100010001010111001001110001
110001001100001111000011101011010010110110011110100001101111101011001011000001001111
010011111011101101001111111010111001111100110100000111101001100100110000001000110111
101101101101101110010011110100110111111110000001100100101100001010100110100001000101
010001111011110101111111000000100110010100010010100100110000011000001011010001110100
010111110010100011001101011011101111101111011000111111101110111000101000011000100000
111110101110001001001110010010000010000111110110001110101011001000000111110100000101
010111001000100100000000100001010001101000001110101000000101110101011110100000000101
100010111010110101110011111100000011111101001011100010011001000100100101101000100011
010101000011000110011001100001011000011100001010000110101101001101001101001000100000
110100010110011110000000001001000011110000101110110010001011110110111110011111101001
100101000010011001111000001000110001010101100011011000010001110001001100101100101000
100000001001000100110001011011001101101001001001100000010011111100001000111011010101
001100111000110110101101000110000010111100001101110001011000100100001001001110100100
110110101000011110000110000110101100110001101111010111010011001100110011101111101101
101101011011001111000101010000100000110011100100010101111001000000011001010100000011
000100101110111001011100100101101011001010011011001010110100001000110100010101010110
011100011111000010010110001011100011010010101111111011111000010011011001100100110001
100011101011010000110100101011000110111110110000010100101110001010000110111111111001
111110111101100101111000101010110100000001011100000100110100100011010001100011010000
100010100011111010011100100011010101111000011110111001111100110100110001110001101001
101100101010110101011110111000011111010010110010100101001010101110111010000001101111
110111010100100001001010100110100011100011101111000010001101000001100011011111001111
001010001110101101111110011101010010110100100111110001101010011010010010110111001100
010000010000000100100111100010101010110100111110000111001001000110100000000101110101
011111011000010111111111100101001100100110100100111101001010000101100000001010000011
110101011011010011101111100100110101111011100000011001100101110101100100000101101001
000010100101100100101000101111010111000000000001010010110000101100000001011101111111
011111010000010111101110001000100110001000100010110011111001111111000101111101011101
101101000111010000001011111110011001110110101010001101010101011100101100111101001100
100011110010001000011100001000011000010110001111010000000010011001110100111100110001
001010110100111110000110010001111100111101111001100001010100010101010111110111110110
000100100001101110010011010001011110001100100100110110100011010001110101010101101111
100010010001001010001001001011100011101111000010001001110100100111000001010111110010
