P1
84 48
110101010010110111100010110001010111010110100101101100011011000001101101101000111011
110111100000001111100110100001001111001010100010000111100001111111010111101001010001
000010010100001000000010110001000110100001010101101101101010110111001111111001000011
011100111100110000000011100000100001101101110111101010101001110110011111001001011010
011010111111000000010001010001000111001001101010000101101011111000011101100111110000
111100010111001101011001000011001111011010110010100001101010001111100110010011001101
100110000101010000010101100011100111010000110001111110000111000100010001100111110000
000010100010000101100110110000000110010101100101100010110100110001111011000101010101
100100100000011110110011110010010011010000100011000000111110010010011011010011000100
101010000011100101011010100001100100110000100110011101010011001101010100110011110010
100000001110100111100011111011001001100001111000100111001100111110100111100111000100
111111001001000101001110001011110111101100101101101111011000001000101011100011101000
010111000111110100110010101100110001011000100110110001000010010111000101111111011101
101000101011001111111101011110110011100001100100000100101011110010010000110010001110
101010101110100101000000101111010011111110000000001000100000000011011111101100110000
101001000001100011100111111111111011100001011111011001010100101101000011100010100110
111011101011000100111000000000010101001111100000111010001011010000100011000001100111
110001111101001000010111001011001010111000010111001100101011111000101110001001000011
000000110100101011111001000100111011010100010000000010011101100000110111101011111001
100001110011101010001111100010111011110001011010110110010000001100010101111100001001
011010100111111101010001000100100101011111001000000001000100101000100010100000111001
110110000101000011101000010110010101100000000000101110110000011110111110110101010100
000110011101010000000011000010111101000001001010111001001100001001101110100000001000
001101011110001100010111001100000000110101010010110011100011010001100110000000110011
011000010101100010100110111111001100011010100001110100110111011111110101110000001111
001000111101100110011111100010010010101000000001000001111100111101010000011110010100
010010001111011010110011000000101001111010011101010101101010111011100011001001000001
010110001110001010110000000001011001000011111011010100100000101110011101110001010011
101000100101100000100110011100111010100000111011101011000101000111011111110100010111
000010001001001011111111010101100010011110011010110110000001111010111100111011010001
111100010111110100000001101011001100011100010000000101000000000001100011010101101101
101000111100001011011011101011000010011001100010100010001010000010000101000011010000
001000011011100010100000101111111001100110110111100001110110110100101110011011011001
100001111101011001111000110111110010001110101010100110110010011000100000101010010011
100010000101000010101110001001110001101111111011110000010100110011111010111000000111
001101101111001111000001100111111101011100101100101110001000100010010001010011010110
101000011010101001010110011101000110011111100011001000001000011001100101110101000100
011110101000001100101001101110100011110101101010100001000110000010111100100000010000
111111010000100110010000100001000111101110001111011001110101000011110101110100111000
101001100010011010011010100100100011101100100011110000110001111010010010111110110000
110101010000010111010010101001011101101000101001111000111110011001011011101101101010
100100011111111001010101011010000101000101001111111110101100101000100100010010000101
100000000011100100110010111010100001010110000001111101001101011011000100110010010111
000011110001010010010100110001100111100010010110000111010001100010001011011011101000
011100101101100101011111010001000000111001110110100000101100010001000111000101001111
010101001001000010000011010100110100110000000010011110100100000111101010001101011110
010000000110001100011000011000110011010000110100100101010110100001111011110101101000
011010110010011001000110011010111111111110101111010000001010000011100001101000000111
