P1
84 48
110101110011011100110000010111000101011110000001011011111100001101101001100001011111
110000000110001010001111111010111001100101110000001000101100010000110101000111010000
001110110100110000101110010001000100100010111010111111101001101001001011101100101110
111100010000000100101110000001110100011010101110010111011001101111101101110000011001
010110000100000100111010000110101110111101001001001010000011100110000101111001100111
101001010001100111001110101010000001001001011111100111011001111011010001111010111001
111111101010001010011001110110000010001110011110110001101001111010111101011100110101
110101001001100000101011000110111010110110111001110110001101000110001010000001011011
111000101111111100110111100010011111011100011111001111101101010010010111111001001001
000110010010111010101010010011000111101101000111100100100100001011111100100001110000
101100011000010111001001111111010011011111100110110110110100100010001010011111001100
101010010111101011011111110000100111111010000001010100111110010101110011111010001101
111001001001010100100001111010100001011101110010101001111110111101111101001100100000
100000010011111011110101011100111010111000111000101101001011010001101101111110101100
101110100111101110011101010100100110111011001000010110101000011001100110100110111011
100001101110111111000110011111111010001100111101010110001001110001010101100111110011
111100100100111001000010101100110100110111001000101000010100000001001011010001111100
100001011110000010100110011111101001111000011101110001010101010101111000110000000000
100111001100000101110100101110001001111011110100111101110011000000110101011000001111
101001011101010000000011101011000110011011110110010000110011111011001100111111100110
111000010100110001110000011100110001010110000100101001100010110010000111110011101010
101111011100001010000010100101011011111110000011000001000011111101000101110000001110
011001010110001110111101011110110001111110101111010010000000010010001111001010000010
100010111110001001000100101001110111000001111001011001111011000101110000101101100110
001011010011010101000011111001100100110100111001000010011000100110000010101001101011
001110110100011011101000011111111001110101001100111011101011011110001000110011100110
000011111010110010111111010101001110011101101010101100111000011011100011001110100100
100111111001001111110001011000110100010010101011010010111000001001111100111000011101
010010111001100110001111011111001111101110101000010001110010100101010111100110010101
010011111100110100010111110100110010000110011000001000010011101101100110000000110010
010101011111101101110101011101110110111111101001100001111110101000110110011101010111
001100010011001111010101111000011000001101111001001001001101010100010111010101101101
011111010010111100010101001001011010011001001110100101000000011010010001011100011010
100101100000011000111000111010010001101011000110110011000011010001011010010110100001
010101010010001001001101001100010010011010110100110110111001010100111100111111011011
100101100100010011100110101101001110011100100000010110010101000110000110000110001111
010010001011011110110011100101101011000111101000110011110010000000010010011001011011
110011100001011111000010100001101001101010010110110100101101110111000011101111001001
111101101010011011011110110110001000011101100001100110010100010010011100100000101010
111100011001000111010111001011000100110000100001000101001001010111100011110101100000
100100111110100010001010000010100011011011011111110101011100001101010011010010101100
010110011001101010001010111011001100010110010010011111101010100100110001011011011100
110010101100000001010000101100101110000000100011001000101001101010101001011011000100
100001010000001100100000111110101000110001001010001110010001011110101001011111100100
010000011100010101011010011011011100111000100001000011111011010110011111010101000000
011100101111011000000100001100010101100101101011100110001100001001101110000101011110
100110011110101100100101101110100100100000101111001001000110000100001000100111110110
101110100111101101000111001011110001110100100000110111001100110001010000100010001111
