P3
4 4
255
225 127 0 42 127 0 38 127 0 248 127 0 
133 127 0 11 127 0 63 127 0 89 127 0 
218 127 0 120 127 0 85 127 0 199 127 0 
2 127 0 244 127 0 251 127 0 143 127 0 
