P1
8 8
11111111
10000001
10000001
11111111
11111111
10000001
10000001
11111111