P1
84 48
1111111111 1111111111 1111111111 1111111111 1111111111 1111111111 1111111111 1111111111 1111
1000000000 1000000000 1000000000 1000000000 1000000000 1000000000 1000000000 1000000000 1001
1000000000 1000000000 1000000000 1000000000 1000000000 1000000000 1000000000 1000000000 1001
1000000000 1000000000 1000000000 1000000000 1000000000 1000000000 1000000000 1000000000 1001
1000000000 1000000000 1000000000 1000000000 1000000000 1000000000 1000000000 1000000000 1001
1000000000 1000000000 1000000000 1000000000 1000000000 1000000000 1000000000 1000000000 1001
1000000000 1000000000 1000000000 1000000000 1000000000 1000000000 1000000000 1000000000 1001
1000000000 1000000000 1000000000 1000000000 1000000000 1000000000 1000000000 1000000000 1001
1000000000 1000000000 1000000000 1000000000 1000000000 1000000000 1000000000 1000000000 1001
1000000000 1000000000 1000000000 1000000000 1000000000 1000000000 1000000000 1000000000 1001
1111111111 1111111111 1111111111 1111111111 1111111111 1111111111 1111111111 1111111111 1111
1000000000 1000000000 1000000000 1000000000 1000000000 1000000000 1000000000 1000000000 1001
1000000000 1000000000 1000000000 1000000000 1000000000 1000000000 1000000000 1000000000 1001
1000000000 1000000000 1000000000 1000000000 1000000000 1000000000 1000000000 1000000000 1001
1000000000 1000000000 1000000000 1000000000 1000000000 1000000000 1000000000 1000000000 1001
1000000000 1000000000 1000000000 1000000000 1000000000 1000000000 1000000000 1000000000 1001
1000000000 1000000000 1000000000 1000000000 1000000000 1000000000 1000000000 1000000000 1001
1000000000 1000000000 1000000000 1000000000 1000000000 1000000000 1000000000 1000000000 1001
1000000000 1000000000 1000000000 1000000000 1000000000 1000000000 1000000000 1000000000 1001
1000000000 1000000000 1000000000 1000000000 1000000000 1000000000 1000000000 1000000000 1001
1111111111 1111111111 1111111111 1111111111 1111111111 1111111111 1111111111 1111111111 1111
1000000000 1000000000 1000000000 1000000000 1000000000 1000000000 1000000000 1000000000 1001
1000000000 1000000000 1000000000 1000000000 1000000000 1000000000 1000000000 1000000000 1001
1000000000 1000000000 1000000000 1000000000 1000000000 1000000000 1000000000 1000000000 1001
1000000000 1000000000 1000000000 1000000000 1000000000 1000000000 1000000000 1000000000 1001
1000000000 1000000000 1000000000 1000000000 1000000000 1000000000 1000000000 1000000000 1001
1000000000 1000000000 1000000000 1000000000 1000000000 1000000000 1000000000 1000000000 1001
1000000000 1000000000 1000000000 1000000000 1000000000 1000000000 1000000000 1000000000 1001
1000000000 1000000000 1000000000 1000000000 1000000000 1000000000 1000000000 1000000000 1001
1000000000 1000000000 1000000000 1000000000 1000000000 1000000000 1000000000 1000000000 1001
1111111111 1111111111 1111111111 1111111111 1111111111 1111111111 1111111111 1111111111 1111
1000000000 1000000000 1000000000 1000000000 1000000000 1000000000 1000000000 1000000000 1001
1000000000 1000000000 1000000000 1000000000 1000000000 1000000000 1000000000 1000000000 1001
1000000000 1000000000 1000000000 1000000000 1000000000 1000000000 1000000000 1000000000 1001
1000000000 1000000000 1000000000 1000000000 1000000000 1000000000 1000000000 1000000000 1001
1000000000 1000000000 1000000000 1000000000 1000000000 1000000000 1000000000 1000000000 1001
1000000000 1000000000 1000000000 1000000000 1000000000 1000000000 1000000000 1000000000 1001
1000000000 1000000000 1000000000 1000000000 1000000000 1000000000 1000000000 1000000000 1001
1000000000 1000000000 1000000000 1000000000 1000000000 1000000000 1000000000 1000000000 1001
1000000000 1000000000 1000000000 1000000000 1000000000 1000000000 1000000000 1000000000 1001
1111111111 1111111111 1111111111 1111111111 1111111111 1111111111 1111111111 1111111111 1111
1000000000 1000000000 1000000000 1000000000 1000000000 1000000000 1000000000 1000000000 1001
1000000000 1000000000 1000000000 1000000000 1000000000 1000000000 1000000000 1000000000 1001
1000000000 1000000000 1000000000 1000000000 1000000000 1000000000 1000000000 1000000000 1001
1000000000 1000000000 1000000000 1000000000 1000000000 1000000000 1000000000 1000000000 1001
1000000000 1000000000 1000000000 1000000000 1000000000 1000000000 1000000000 1000000000 1001
1000000000 1000000000 1000000000 1000000000 1000000000 1000000000 1000000000 1000000000 1001
1111111111 1111111111 1111111111 1111111111 1111111111 1111111111 1111111111 1111111111 1111