P3 
2 2  
255
# 1           2
255 255 127   255 0 0 
# 3           4
0   255   0     0 0 255  